# xmcd
#
# Track frame offsets: 
#        150
#        13496
#        51818
#        68296
#        79183
#        99835
#        120069
#        140551
#
# Disc length: 2152 seconds
#
# Revision: 5
# Processed by: cddbd v1.5.2PL0 Copyright (c) Steve Scherf et al.
# Submitted via: ExactAudioCopy v0.95b4
#
DISCID=5a086608
DTITLE=Krzysztof Sadowski - Krzysztof Sadowski And His Hammond Organ
DYEAR=1970
DGENRE=Jazz
TTITLE0=Z Malej Chmury Duzy Deszcz - Heavy Rain From A Little Cloud
TTITLE1=Impressions Of The Beatles
TTITLE2=Kolyszac Sie - Swinging
TTITLE3=Skad My To Znamy - Something Familliar
TTITLE4=Blues Z Moralem - Don't Count On Neal
TTITLE5=Ballada Z Filmu "Rosemary's Baby" - Main Theme From "Rosemary'
TTITLE5=s Baby"
TTITLE6=Punkt Docelowy - Aim Point
TTITLE7=Za Pare Dziekow - For Thanks
EXTD=YEAR: 1970
EXTT0=
EXTT1=
EXTT2=
EXTT3=
EXTT4=
EXTT5=
EXTT6=
EXTT7=
PLAYORDER=
